#N canvas 65 54 1301 714 10;
#X obj 192 126 mtof;
#X obj 192 46 inlet;
#X obj 61 220 / 2;
#X obj 126 220 * 1.5;
#X obj 321 220 * 3;
#X obj 388 220 * 4;
#X obj 456 220 * 5;
#X obj 525 220 * 6;
#X obj 593 221 * 8;
#X obj 61 263 osc~;
#X obj 126 263 osc~;
#X obj 321 263 osc~;
#X obj 388 263 osc~;
#X obj 456 264 osc~;
#X obj 525 263 osc~;
#X obj 593 263 osc~;
#X obj 192 263 osc~;
#X obj 60 359 *~;
#X obj 126 358 *~;
#X obj 322 356 *~;
#X obj 389 355 *~;
#X obj 457 354 *~;
#X obj 526 354 *~;
#X obj 594 355 *~;
#X obj 194 423 +~;
#X obj 196 546 outlet~;
#X obj 257 263 osc~;
#X obj 256 358 *~;
#X obj 191 362 *~;
#X floatatom 206 333 5 0 0 0 - - -;
#X obj 195 467 /~ 9;
#X floatatom 141 333 5 0 0 0 - - -;
#X floatatom 75 331 5 0 0 0 - - -;
#X floatatom 271 330 5 0 0 0 - - -;
#X floatatom 337 330 5 0 0 0 - - -;
#X floatatom 404 330 5 0 0 0 - - -;
#X floatatom 472 329 5 0 0 0 - - -;
#X floatatom 541 329 5 0 0 0 - - -;
#X floatatom 609 327 5 0 0 0 - - -;
#X floatatom 192 219 5 0 0 0 - - -;
#X obj 257 220 * 2;
#X obj 243 45 inlet;
#X obj 192 82 stripnote;
#X obj 196 505 *~;
#X obj 75 299 r ff1;
#X obj 141 299 r ff2;
#X obj 206 299 r ff3;
#X obj 271 300 r ff4;
#X obj 337 299 r ff5;
#X obj 404 298 r ff6;
#X obj 472 298 r ff7;
#X obj 541 297 r ff8;
#X obj 609 298 r ff9;
#X obj 760 496 r s1;
#X floatatom 760 528 5 0 0 0 - - -;
#X obj 760 629 s ff1;
#X obj 760 559 / 100;
#X obj 760 595 + 0.4;
#X floatatom 806 528 5 0 0 0 - - -;
#X obj 806 559 / 100;
#X obj 806 595 + 0.4;
#X floatatom 852 528 5 0 0 0 - - -;
#X obj 852 559 / 100;
#X obj 852 595 + 0.4;
#X floatatom 898 528 5 0 0 0 - - -;
#X obj 898 559 / 100;
#X obj 898 595 + 0.4;
#X floatatom 945 528 5 0 0 0 - - -;
#X obj 945 559 / 100;
#X obj 945 595 + 0.4;
#X floatatom 991 528 5 0 0 0 - - -;
#X obj 991 559 / 100;
#X obj 991 595 + 0.4;
#X floatatom 1037 528 5 0 0 0 - - -;
#X obj 1037 559 / 100;
#X obj 1037 595 + 0.4;
#X floatatom 1083 528 5 0 0 0 - - -;
#X obj 1083 559 / 100;
#X obj 1083 595 + 0.4;
#X floatatom 1129 528 5 0 0 0 - - -;
#X obj 1129 559 / 100;
#X obj 1129 595 + 0.4;
#X obj 806 496 r s2;
#X obj 852 496 r s3;
#X obj 898 496 r s4;
#X obj 945 496 r s5;
#X obj 991 496 r s6;
#X obj 1037 496 r s7;
#X obj 1083 496 r s8;
#X obj 1129 496 r s9;
#X obj 806 629 s ff2;
#X obj 852 629 s ff3;
#X obj 898 629 s ff4;
#X obj 945 629 s ff5;
#X obj 991 629 s ff6;
#X obj 1037 629 s ff7;
#X obj 1083 629 s ff8;
#X obj 1129 629 s ff9;
#X text 861 227 Note and velocity messages are sent to the envelope
that returns the appropriate waveform \, that has to be multiplied
with the bank of oscillators.;
#X text 415 29 We receive the note and velocity messages and we select
only the notes with velocity different from zero. The block "mtof"
converts the note message into a frequency. The frequency feeds the
bank of oscillators \, each oscillator is controlled in amplitude.
;
#X text 756 454 This rescales the incoming values of the faders into
a range between -1 and +1.;
#X text 270 509 We divide the signal by 9 in order to avoid clipping.
;
#X text 929 26 OSCILLATORS VALUES (from left to right): 16' one octave
below the fundamental 5 1/3' one fifth above the fundamental 8' fundamental
note 4' one octave above the fundamental 2 2/3' one octave and one
fifth above the fundamental 2' two octaves above the fundamental 1
3/5' two octaves and a major third above the fundamental 1 1/3' two
octaves and a fifth above the fundamental 1' three octaves above the
fundamental N.B.: with fundamental we mean the input note;
#X obj 695 198 envelope;
#X text 978 683 Author: Nicola Simoni (nicola.simoni.89@gmail.com)
;
#X text 972 667 Project: Pipe Organ Emulation with Pure Data;
#X connect 0 0 2 0;
#X connect 0 0 3 0;
#X connect 0 0 4 0;
#X connect 0 0 5 0;
#X connect 0 0 6 0;
#X connect 0 0 7 0;
#X connect 0 0 8 0;
#X connect 0 0 39 0;
#X connect 0 0 40 0;
#X connect 1 0 42 0;
#X connect 1 0 103 0;
#X connect 2 0 9 0;
#X connect 3 0 10 0;
#X connect 4 0 11 0;
#X connect 5 0 12 0;
#X connect 6 0 13 0;
#X connect 7 0 14 0;
#X connect 8 0 15 0;
#X connect 9 0 17 0;
#X connect 10 0 18 0;
#X connect 11 0 19 0;
#X connect 12 0 20 0;
#X connect 13 0 21 0;
#X connect 14 0 22 0;
#X connect 15 0 23 0;
#X connect 16 0 28 0;
#X connect 17 0 24 0;
#X connect 18 0 24 0;
#X connect 19 0 24 0;
#X connect 20 0 24 0;
#X connect 21 0 24 0;
#X connect 22 0 24 0;
#X connect 23 0 24 0;
#X connect 24 0 30 0;
#X connect 26 0 27 0;
#X connect 27 0 24 0;
#X connect 28 0 24 0;
#X connect 29 0 28 1;
#X connect 30 0 43 0;
#X connect 31 0 18 1;
#X connect 32 0 17 1;
#X connect 33 0 27 1;
#X connect 34 0 19 1;
#X connect 35 0 20 1;
#X connect 36 0 21 1;
#X connect 37 0 22 1;
#X connect 38 0 23 1;
#X connect 39 0 16 0;
#X connect 40 0 26 0;
#X connect 41 0 42 1;
#X connect 41 0 103 1;
#X connect 42 0 0 0;
#X connect 43 0 25 0;
#X connect 44 0 32 0;
#X connect 45 0 31 0;
#X connect 46 0 29 0;
#X connect 47 0 33 0;
#X connect 48 0 34 0;
#X connect 49 0 35 0;
#X connect 50 0 36 0;
#X connect 51 0 37 0;
#X connect 52 0 38 0;
#X connect 53 0 54 0;
#X connect 54 0 56 0;
#X connect 56 0 57 0;
#X connect 57 0 55 0;
#X connect 58 0 59 0;
#X connect 59 0 60 0;
#X connect 60 0 90 0;
#X connect 61 0 62 0;
#X connect 62 0 63 0;
#X connect 63 0 91 0;
#X connect 64 0 65 0;
#X connect 65 0 66 0;
#X connect 66 0 92 0;
#X connect 67 0 68 0;
#X connect 68 0 69 0;
#X connect 69 0 93 0;
#X connect 70 0 71 0;
#X connect 71 0 72 0;
#X connect 72 0 94 0;
#X connect 73 0 74 0;
#X connect 74 0 75 0;
#X connect 75 0 95 0;
#X connect 76 0 77 0;
#X connect 77 0 78 0;
#X connect 78 0 96 0;
#X connect 79 0 80 0;
#X connect 80 0 81 0;
#X connect 81 0 97 0;
#X connect 82 0 58 0;
#X connect 83 0 61 0;
#X connect 84 0 64 0;
#X connect 85 0 67 0;
#X connect 86 0 70 0;
#X connect 87 0 73 0;
#X connect 88 0 76 0;
#X connect 89 0 79 0;
#X connect 103 0 43 1;
