#N canvas 65 54 1301 714 10;
#X obj 118 308 r presets;
#X obj 108 631 unpack f f f f f f f f f;
#X obj 41 686 s r1;
#X obj 76 686 s r2;
#X obj 110 686 s r3;
#X obj 144 686 s r4;
#X obj 178 686 s r5;
#X obj 212 686 s r6;
#X obj 246 686 s r7;
#X obj 280 686 s r8;
#X obj 314 686 s r9;
#X obj 25 56 ctlin 97 1;
#X obj 97 56 ctlin 96 1;
#X obj 169 56 ctlin 66 1;
#X obj 241 56 ctlin 67 1;
#X msg 25 90 0;
#X msg 97 90 1;
#X msg 169 90 2;
#X msg 241 90 3;
#X obj 313 56 ctlin 64 1;
#X obj 385 56 ctlin 65 1;
#X msg 313 90 4;
#X msg 385 90 5;
#X floatatom 97 122 5 0 0 0 - - -;
#X floatatom 25 122 5 0 0 0 - - -;
#X floatatom 169 122 5 0 0 0 - - -;
#X floatatom 241 122 5 0 0 0 - - -;
#X floatatom 313 122 5 0 0 0 - - -;
#X floatatom 385 122 5 0 0 0 - - -;
#X msg 68 416 -40 -40 -40 -40 -40 -40 -40 -40 -40;
#X msg 108 447 0 -20 20 40 0 10 0 -10 -10;
#X msg 147 479 40 40 10 -10 -20 0 10 40 40;
#X msg 175 512 -30 -20 -10 -10 -10 -10 -40 -40 -40;
#X msg 208 546 30 20 40 40 30 40 20 20 30;
#X obj 118 365 sel 0 1 2 3 4 5;
#X obj 209 186 s tasti;
#X text 20 10 Receives the midi commands from the relative channels
and sends them to the presets.;
#X obj 105 262 hradio 15 1 0 6 presets tasti presets 0 -8 0 10 -262144
-1 -1 0;
#X floatatom 118 337 5 0 0 0 - - -;
#X text 230 304 Receives the commands from the presets and changes
the values of the the intensity faders accordingly.;
#X floatatom 1098 171 5 0 0 0 - - -;
#X floatatom 1137 171 5 0 0 0 - - -;
#X floatatom 1175 172 5 0 0 0 - - -;
#X obj 1124 131 ctlin;
#X text 1121 107 Example;
#X msg 237 580 40 40 40 -40 -40 -40 -40 -40 -40;
#X obj 946 67 hradio 15 1 0 6 presetsreg tastireg presets_registers
0 -8 0 10 -262144 -1 -1 0;
#X obj 741 91 sel 0 1 2 3 4 5;
#X floatatom 741 63 5 0 0 0 - - -;
#X obj 741 34 r presetsreg;
#X obj 768 327 unpack f f f f f f f f f f f f f;
#X obj 673 359 s r_principale16;
#X obj 688 386 s r_corno;
#X obj 706 413 s r_fagotto16;
#X obj 725 441 s r_principale8;
#X obj 753 470 s r_ottava4;
#X obj 777 497 s r_tromba8;
#X obj 803 524 s r_violabassi4;
#X obj 843 551 s r_flauto4;
#X obj 883 578 s r_ottavino;
#X obj 918 607 s r_duodecima;
#X obj 950 633 s r_cornetto;
#X obj 982 658 s r_voce;
#X obj 1028 683 s r_tromboni;
#X msg 665 133 0 0 0 0 0 0 0 0 0 0 0 0 0;
#X msg 713 162 1 1 0 0 0 0 0 0 0 0 0 0 0;
#X msg 745 192 0 1 0 1 0 0 0 0 0 0 0 0 0;
#X msg 784 223 0 1 0 1 1 1 0 0 0 0 0 0 0;
#X msg 830 252 0 0 0 0 0 0 0 0 0 1 1 0 1;
#X msg 882 281 0 0 0 0 1 0 0 0 0 0 0 1 0;
#X text 498 662 Project: Pipe Organ Emulation with Pure Data;
#X text 503 678 Author: Nicola Simoni (nicola.simoni.89@gmail.com)
;
#X connect 0 0 38 0;
#X connect 1 0 2 0;
#X connect 1 1 3 0;
#X connect 1 2 4 0;
#X connect 1 3 5 0;
#X connect 1 4 6 0;
#X connect 1 5 7 0;
#X connect 1 6 8 0;
#X connect 1 7 9 0;
#X connect 1 8 10 0;
#X connect 11 0 15 0;
#X connect 12 0 16 0;
#X connect 13 0 17 0;
#X connect 14 0 18 0;
#X connect 15 0 24 0;
#X connect 16 0 23 0;
#X connect 17 0 25 0;
#X connect 18 0 26 0;
#X connect 19 0 21 0;
#X connect 20 0 22 0;
#X connect 21 0 27 0;
#X connect 22 0 28 0;
#X connect 23 0 35 0;
#X connect 24 0 35 0;
#X connect 25 0 35 0;
#X connect 26 0 35 0;
#X connect 27 0 35 0;
#X connect 28 0 35 0;
#X connect 29 0 1 0;
#X connect 30 0 1 0;
#X connect 31 0 1 0;
#X connect 32 0 1 0;
#X connect 33 0 1 0;
#X connect 34 0 29 0;
#X connect 34 1 30 0;
#X connect 34 2 31 0;
#X connect 34 3 32 0;
#X connect 34 4 33 0;
#X connect 34 5 45 0;
#X connect 38 0 34 0;
#X connect 43 0 40 0;
#X connect 43 1 41 0;
#X connect 43 2 42 0;
#X connect 45 0 1 0;
#X connect 47 0 64 0;
#X connect 47 1 65 0;
#X connect 47 2 66 0;
#X connect 47 3 67 0;
#X connect 47 4 68 0;
#X connect 47 5 69 0;
#X connect 48 0 47 0;
#X connect 49 0 48 0;
#X connect 50 0 51 0;
#X connect 50 1 52 0;
#X connect 50 2 53 0;
#X connect 50 3 54 0;
#X connect 50 4 55 0;
#X connect 50 5 56 0;
#X connect 50 6 57 0;
#X connect 50 7 58 0;
#X connect 50 8 59 0;
#X connect 50 9 60 0;
#X connect 50 10 61 0;
#X connect 50 11 62 0;
#X connect 50 12 63 0;
#X connect 64 0 50 0;
#X connect 65 0 50 0;
#X connect 66 0 50 0;
#X connect 67 0 50 0;
#X connect 68 0 50 0;
#X connect 69 0 50 0;
