#N canvas 65 54 1301 714 10;
#X obj -1040 118 tgl 15 1 s_principale16 r_principale16 principale_16'
0 -10 0 10 -262144 -1 -1 0 1;
#X obj -945 118 tgl 15 1 s_corno r_corno corno_inglese 0 -10 0 10 -262144
-1 -1 0 1;
#X obj -861 118 tgl 15 1 s_fagotto16 r_fagotto16 fagotto_16' 0 -10
0 10 -262144 -1 -1 0 1;
#X obj -770 118 tgl 15 1 s_principale8 r_principale8 principale_8'
0 -10 0 10 -262144 -1 -1 0 1;
#X obj -667 118 tgl 15 1 s_ottava4 r_ottava4 ottava_4' 0 -10 0 10 -262144
-1 -1 0 1;
#X obj -571 118 tgl 15 1 s_tromba8 r_tromba8 tromba_8' 0 -10 0 10 -262144
-1 -1 0 1;
#X obj -471 118 tgl 15 1 s_violabassi4 r_violabassi4 viola_bassi_4'
0 -10 0 10 -262144 -1 -1 0 1;
#X obj -364 118 tgl 15 1 s_flauto4 r_flauto4 flauto_4' 0 -10 0 10 -262144
-1 -1 0 1;
#X obj -270 118 tgl 15 1 s_ottavino r_ottavino ottavino 0 -10 0 10
-262144 -1 -1 0 1;
#X obj -168 118 tgl 15 1 s_duodecima r_duodecima duodecima 0 -10 0
10 -262144 -1 -1 0 1;
#X obj -64 118 tgl 15 1 s_cornetto r_cornetto cornetto 0 -10 0 10 -262144
-1 -1 0 1;
#X obj 25 118 tgl 15 1 s_voce r_voce voce 0 -10 0 10 -262144 -1 -1
0 1;
#X obj 113 118 tgl 15 1 s_tromboni r_tromboni tromboni 0 -10 0 10 -262144
-1 -1 0 1;
#X floatatom -638 574 5 0 0 0 - - -;
#X floatatom -595 574 5 0 0 0 - - -;
#X floatatom -553 574 5 0 0 0 - - -;
#X floatatom -511 574 5 0 0 0 - - -;
#X floatatom -469 574 5 0 0 0 - - -;
#X floatatom -427 574 5 0 0 0 - - -;
#X floatatom -384 574 5 0 0 0 - - -;
#X floatatom -340 574 5 0 0 0 - - -;
#X floatatom -297 574 5 0 0 0 - - -;
#N canvas 496 321 450 300 fagotto16 0;
#X floatatom -905 66 5 0 0 0 - - -;
#X obj -905 102 sel 0 1;
#X obj -905 195 unpack f f f f f f f f f;
#X obj -905 232 outlet;
#X obj -860 232 outlet;
#X obj -815 232 outlet;
#X obj -770 232 outlet;
#X obj -726 232 outlet;
#X obj -681 232 outlet;
#X obj -636 232 outlet;
#X obj -591 232 outlet;
#X obj -547 232 outlet;
#X msg -905 156 -100 -100 -100 -100 -100 -100 -100 -100 -100;
#X msg -886 131 -40 0 30 0 -40 -40 -40 -40 -40;
#X obj -905 33 r s_fagotto16;
#X connect 0 0 1 0;
#X connect 1 0 12 0;
#X connect 1 1 13 0;
#X connect 2 0 3 0;
#X connect 2 1 4 0;
#X connect 2 2 5 0;
#X connect 2 3 6 0;
#X connect 2 4 7 0;
#X connect 2 5 8 0;
#X connect 2 6 9 0;
#X connect 2 7 10 0;
#X connect 2 8 11 0;
#X connect 12 0 2 0;
#X connect 13 0 2 0;
#X connect 14 0 0 0;
#X restore -812 173 pd fagotto16;
#N canvas 497 433 450 300 flauto4 0;
#X floatatom -905 66 5 0 0 0 - - -;
#X obj -905 102 sel 0 1;
#X obj -905 195 unpack f f f f f f f f f;
#X obj -905 232 outlet;
#X obj -860 232 outlet;
#X obj -815 232 outlet;
#X obj -770 232 outlet;
#X obj -726 232 outlet;
#X obj -681 232 outlet;
#X obj -636 232 outlet;
#X obj -591 232 outlet;
#X obj -547 232 outlet;
#X msg -905 156 -100 -100 -100 -100 -100 -100 -100 -100 -100;
#X obj -905 33 r s_flauto4;
#X msg -886 131 -40 -40 -40 40 -40 -10 -40 -10 0;
#X connect 0 0 1 0;
#X connect 1 0 12 0;
#X connect 1 1 14 0;
#X connect 2 0 3 0;
#X connect 2 1 4 0;
#X connect 2 2 5 0;
#X connect 2 3 6 0;
#X connect 2 4 7 0;
#X connect 2 5 8 0;
#X connect 2 6 9 0;
#X connect 2 7 10 0;
#X connect 2 8 11 0;
#X connect 12 0 2 0;
#X connect 13 0 0 0;
#X connect 14 0 2 0;
#X restore -379 173 pd flauto4;
#X obj -508 490 sommatore_registri;
#X obj -638 607 s r1;
#X obj -595 607 s r2;
#X obj -553 607 s r3;
#X obj -511 607 s r4;
#X obj -469 607 s r5;
#X obj -427 607 s r6;
#X obj -384 607 s r7;
#X obj -340 607 s r8;
#X obj -297 607 s r9;
#N canvas 525 374 450 300 corno 0;
#X floatatom -905 66 5 0 0 0 - - -;
#X obj -905 102 sel 0 1;
#X obj -905 195 unpack f f f f f f f f f;
#X obj -905 232 outlet;
#X obj -860 232 outlet;
#X obj -815 232 outlet;
#X obj -770 232 outlet;
#X obj -726 232 outlet;
#X obj -681 232 outlet;
#X obj -636 232 outlet;
#X obj -591 232 outlet;
#X obj -547 232 outlet;
#X msg -905 156 -100 -100 -100 -100 -100 -100 -100 -100 -100;
#X obj -905 33 r s_corno;
#X msg -886 131 -20 10 -10 0 0 -20 -30 -40 -40;
#X connect 0 0 1 0;
#X connect 1 0 12 0;
#X connect 1 1 14 0;
#X connect 2 0 3 0;
#X connect 2 1 4 0;
#X connect 2 2 5 0;
#X connect 2 3 6 0;
#X connect 2 4 7 0;
#X connect 2 5 8 0;
#X connect 2 6 9 0;
#X connect 2 7 10 0;
#X connect 2 8 11 0;
#X connect 12 0 2 0;
#X connect 13 0 0 0;
#X connect 14 0 2 0;
#X restore -885 173 pd corno;
#N canvas 749 349 450 300 principale8 0;
#X floatatom -905 66 5 0 0 0 - - -;
#X obj -905 102 sel 0 1;
#X obj -905 195 unpack f f f f f f f f f;
#X obj -905 232 outlet;
#X obj -860 232 outlet;
#X obj -815 232 outlet;
#X obj -770 232 outlet;
#X obj -726 232 outlet;
#X obj -681 232 outlet;
#X obj -636 232 outlet;
#X obj -591 232 outlet;
#X obj -547 232 outlet;
#X msg -905 156 -100 -100 -100 -100 -100 -100 -100 -100 -100;
#X msg -886 131 -40 -40 10 30 10 0 -20 -30 -40;
#X obj -905 33 r s_principale8;
#X connect 0 0 1 0;
#X connect 1 0 12 0;
#X connect 1 1 13 0;
#X connect 2 0 3 0;
#X connect 2 1 4 0;
#X connect 2 2 5 0;
#X connect 2 3 6 0;
#X connect 2 4 7 0;
#X connect 2 5 8 0;
#X connect 2 6 9 0;
#X connect 2 7 10 0;
#X connect 2 8 11 0;
#X connect 12 0 2 0;
#X connect 13 0 2 0;
#X connect 14 0 0 0;
#X restore -719 173 pd principale8;
#N canvas 642 216 450 300 principale16 0;
#X floatatom -905 66 5 0 0 0 - - -;
#X obj -905 102 sel 0 1;
#X obj -905 195 unpack f f f f f f f f f;
#X obj -905 232 outlet;
#X obj -860 232 outlet;
#X obj -815 232 outlet;
#X obj -770 232 outlet;
#X obj -726 232 outlet;
#X obj -681 232 outlet;
#X obj -636 232 outlet;
#X obj -591 232 outlet;
#X obj -547 232 outlet;
#X msg -905 156 -100 -100 -100 -100 -100 -100 -100 -100 -100;
#X msg -886 131 10 0 -10 -30 -40 -40 -40 -40 -40;
#X obj -905 33 r s_principale16;
#X connect 0 0 1 0;
#X connect 1 0 12 0;
#X connect 1 1 13 0;
#X connect 2 0 3 0;
#X connect 2 1 4 0;
#X connect 2 2 5 0;
#X connect 2 3 6 0;
#X connect 2 4 7 0;
#X connect 2 5 8 0;
#X connect 2 6 9 0;
#X connect 2 7 10 0;
#X connect 2 8 11 0;
#X connect 12 0 2 0;
#X connect 13 0 2 0;
#X connect 14 0 0 0;
#X restore -996 173 pd principale16;
#N canvas 497 451 450 300 ottava4 0;
#X floatatom -905 66 5 0 0 0 - - -;
#X obj -905 102 sel 0 1;
#X obj -905 195 unpack f f f f f f f f f;
#X obj -905 232 outlet;
#X obj -860 232 outlet;
#X obj -815 232 outlet;
#X obj -770 232 outlet;
#X obj -726 232 outlet;
#X obj -681 232 outlet;
#X obj -636 232 outlet;
#X obj -591 232 outlet;
#X obj -547 232 outlet;
#X msg -905 156 -100 -100 -100 -100 -100 -100 -100 -100 -100;
#X obj -905 33 r s_ottava4;
#X msg -886 131 -40 -40 -40 20 -20 20 -30 -20 -30;
#X connect 0 0 1 0;
#X connect 1 0 12 0;
#X connect 1 1 14 0;
#X connect 2 0 3 0;
#X connect 2 1 4 0;
#X connect 2 2 5 0;
#X connect 2 3 6 0;
#X connect 2 4 7 0;
#X connect 2 5 8 0;
#X connect 2 6 9 0;
#X connect 2 7 10 0;
#X connect 2 8 11 0;
#X connect 12 0 2 0;
#X connect 13 0 0 0;
#X connect 14 0 2 0;
#X restore -616 173 pd ottava4;
#N canvas 627 468 450 300 tromba8 0;
#X floatatom -905 66 5 0 0 0 - - -;
#X obj -905 102 sel 0 1;
#X obj -905 195 unpack f f f f f f f f f;
#X obj -905 232 outlet;
#X obj -860 232 outlet;
#X obj -815 232 outlet;
#X obj -770 232 outlet;
#X obj -726 232 outlet;
#X obj -681 232 outlet;
#X obj -636 232 outlet;
#X obj -591 232 outlet;
#X obj -547 232 outlet;
#X msg -905 156 -100 -100 -100 -100 -100 -100 -100 -100 -100;
#X obj -905 33 r s_tromba8;
#X msg -886 131 -40 -40 20 30 40 20 10 -10 -40;
#X connect 0 0 1 0;
#X connect 1 0 12 0;
#X connect 1 1 14 0;
#X connect 2 0 3 0;
#X connect 2 1 4 0;
#X connect 2 2 5 0;
#X connect 2 3 6 0;
#X connect 2 4 7 0;
#X connect 2 5 8 0;
#X connect 2 6 9 0;
#X connect 2 7 10 0;
#X connect 2 8 11 0;
#X connect 12 0 2 0;
#X connect 13 0 0 0;
#X connect 14 0 2 0;
#X restore -537 173 pd tromba8;
#N canvas 516 374 450 300 violab4 0;
#X floatatom -905 66 5 0 0 0 - - -;
#X obj -905 102 sel 0 1;
#X obj -905 195 unpack f f f f f f f f f;
#X obj -905 232 outlet;
#X obj -860 232 outlet;
#X obj -815 232 outlet;
#X obj -770 232 outlet;
#X obj -726 232 outlet;
#X obj -681 232 outlet;
#X obj -636 232 outlet;
#X obj -591 232 outlet;
#X obj -547 232 outlet;
#X msg -905 156 -100 -100 -100 -100 -100 -100 -100 -100 -100;
#X obj -905 33 r s_violabassi4;
#X msg -886 131 -40 -40 -40 -10 0 0 -20 -10 -20;
#X connect 0 0 1 0;
#X connect 1 0 12 0;
#X connect 1 1 14 0;
#X connect 2 0 3 0;
#X connect 2 1 4 0;
#X connect 2 2 5 0;
#X connect 2 3 6 0;
#X connect 2 4 7 0;
#X connect 2 5 8 0;
#X connect 2 6 9 0;
#X connect 2 7 10 0;
#X connect 2 8 11 0;
#X connect 12 0 2 0;
#X connect 13 0 0 0;
#X connect 14 0 2 0;
#X restore -460 173 pd violab4;
#N canvas 552 430 450 300 ottavino 0;
#X floatatom -905 66 5 0 0 0 - - -;
#X obj -905 102 sel 0 1;
#X obj -905 195 unpack f f f f f f f f f;
#X obj -905 232 outlet;
#X obj -860 232 outlet;
#X obj -815 232 outlet;
#X obj -770 232 outlet;
#X obj -726 232 outlet;
#X obj -681 232 outlet;
#X obj -636 232 outlet;
#X obj -591 232 outlet;
#X obj -547 232 outlet;
#X msg -905 156 -100 -100 -100 -100 -100 -100 -100 -100 -100;
#X obj -905 33 r s_ottavino;
#X msg -886 131 -40 -40 -40 -40 -40 20 -30 -10 -20;
#X connect 0 0 1 0;
#X connect 1 0 12 0;
#X connect 1 1 14 0;
#X connect 2 0 3 0;
#X connect 2 1 4 0;
#X connect 2 2 5 0;
#X connect 2 3 6 0;
#X connect 2 4 7 0;
#X connect 2 5 8 0;
#X connect 2 6 9 0;
#X connect 2 7 10 0;
#X connect 2 8 11 0;
#X connect 12 0 2 0;
#X connect 13 0 0 0;
#X connect 14 0 2 0;
#X restore -296 173 pd ottavino;
#N canvas 632 419 450 300 ddecima 0;
#X floatatom -895 76 5 0 0 0 - - -;
#X obj -895 112 sel 0 1;
#X obj -895 205 unpack f f f f f f f f f;
#X obj -895 242 outlet;
#X obj -850 242 outlet;
#X obj -805 242 outlet;
#X obj -760 242 outlet;
#X obj -716 242 outlet;
#X obj -671 242 outlet;
#X obj -626 242 outlet;
#X obj -581 242 outlet;
#X obj -537 242 outlet;
#X msg -895 166 -100 -100 -100 -100 -100 -100 -100 -100 -100;
#X obj -895 43 r s_duodecima;
#X msg -876 141 -40 -40 -40 -40 20 -40 -40 -20 -40;
#X connect 0 0 1 0;
#X connect 1 0 12 0;
#X connect 1 1 14 0;
#X connect 2 0 3 0;
#X connect 2 1 4 0;
#X connect 2 2 5 0;
#X connect 2 3 6 0;
#X connect 2 4 7 0;
#X connect 2 5 8 0;
#X connect 2 6 9 0;
#X connect 2 7 10 0;
#X connect 2 8 11 0;
#X connect 12 0 2 0;
#X connect 13 0 0 0;
#X connect 14 0 2 0;
#X restore -207 173 pd ddecima;
#N canvas 622 446 450 300 cornetto 0;
#X floatatom -905 66 5 0 0 0 - - -;
#X obj -905 102 sel 0 1;
#X obj -905 195 unpack f f f f f f f f f;
#X obj -905 232 outlet;
#X obj -860 232 outlet;
#X obj -815 232 outlet;
#X obj -770 232 outlet;
#X obj -726 232 outlet;
#X obj -681 232 outlet;
#X obj -636 232 outlet;
#X obj -591 232 outlet;
#X obj -547 232 outlet;
#X msg -905 156 -100 -100 -100 -100 -100 -100 -100 -100 -100;
#X obj -905 33 r s_cornetto;
#X msg -886 131 -40 -40 40 20 20 -40 0 -40 -40;
#X connect 0 0 1 0;
#X connect 1 0 12 0;
#X connect 1 1 14 0;
#X connect 2 0 3 0;
#X connect 2 1 4 0;
#X connect 2 2 5 0;
#X connect 2 3 6 0;
#X connect 2 4 7 0;
#X connect 2 5 8 0;
#X connect 2 6 9 0;
#X connect 2 7 10 0;
#X connect 2 8 11 0;
#X connect 12 0 2 0;
#X connect 13 0 0 0;
#X connect 14 0 2 0;
#X restore -125 173 pd cornetto;
#N canvas 299 313 450 300 voce 0;
#X floatatom -905 66 5 0 0 0 - - -;
#X obj -905 102 sel 0 1;
#X obj -905 195 unpack f f f f f f f f f;
#X obj -905 232 outlet;
#X obj -860 232 outlet;
#X obj -815 232 outlet;
#X obj -770 232 outlet;
#X obj -726 232 outlet;
#X obj -681 232 outlet;
#X obj -636 232 outlet;
#X obj -591 232 outlet;
#X obj -547 232 outlet;
#X msg -905 156 -100 -100 -100 -100 -100 -100 -100 -100 -100;
#X msg -886 131 -40 -40 -20 -10 -20 -20 -30 -30 -40;
#X obj -905 33 r s_voce;
#X connect 0 0 1 0;
#X connect 1 0 12 0;
#X connect 1 1 13 0;
#X connect 2 0 3 0;
#X connect 2 1 4 0;
#X connect 2 2 5 0;
#X connect 2 3 6 0;
#X connect 2 4 7 0;
#X connect 2 5 8 0;
#X connect 2 6 9 0;
#X connect 2 7 10 0;
#X connect 2 8 11 0;
#X connect 12 0 2 0;
#X connect 13 0 2 0;
#X connect 14 0 0 0;
#X restore -39 173 pd voce;
#N canvas 525 489 450 300 tromboni 0;
#X floatatom -905 66 5 0 0 0 - - -;
#X obj -905 102 sel 0 1;
#X obj -905 195 unpack f f f f f f f f f;
#X obj -905 232 outlet;
#X obj -860 232 outlet;
#X obj -815 232 outlet;
#X obj -770 232 outlet;
#X obj -726 232 outlet;
#X obj -681 232 outlet;
#X obj -636 232 outlet;
#X obj -591 232 outlet;
#X obj -547 232 outlet;
#X msg -905 156 -100 -100 -100 -100 -100 -100 -100 -100 -100;
#X obj -905 33 r s_tromboni;
#X msg -886 131 -40 -40 20 30 40 20 10 -10 -40;
#X connect 0 0 1 0;
#X connect 1 0 12 0;
#X connect 1 1 14 0;
#X connect 2 0 3 0;
#X connect 2 1 4 0;
#X connect 2 2 5 0;
#X connect 2 3 6 0;
#X connect 2 4 7 0;
#X connect 2 5 8 0;
#X connect 2 6 9 0;
#X connect 2 7 10 0;
#X connect 2 8 11 0;
#X connect 12 0 2 0;
#X connect 13 0 0 0;
#X connect 14 0 2 0;
#X restore 21 173 pd tromboni;
#X obj -996 491 sommatore_registri;
#X obj -873 491 sommatore_registri;
#X obj -751 491 sommatore_registri;
#X obj -629 490 sommatore_registri;
#X obj -386 490 sommatore_registri;
#X obj -265 490 sommatore_registri;
#X obj -143 491 sommatore_registri;
#X obj -21 491 sommatore_registri;
#X text -1036 15 Here we define the registers and the combinations
among them. When we use more than one register at once \, the corresponding
harmonics must be summed together.;
#X text -88 673 Author: Nicola Simoni (nicola.simoni.89@gmail.com)
;
#X text -93 656 Project: Pipe Organ Emulation with Pure Data;
#X connect 13 0 25 0;
#X connect 14 0 26 0;
#X connect 15 0 27 0;
#X connect 16 0 28 0;
#X connect 17 0 29 0;
#X connect 18 0 30 0;
#X connect 19 0 31 0;
#X connect 20 0 32 0;
#X connect 21 0 33 0;
#X connect 22 0 45 2;
#X connect 22 1 46 2;
#X connect 22 2 47 2;
#X connect 22 3 48 2;
#X connect 22 4 24 2;
#X connect 22 5 49 2;
#X connect 22 6 50 2;
#X connect 22 7 51 2;
#X connect 22 8 52 2;
#X connect 23 0 45 7;
#X connect 23 1 46 7;
#X connect 23 2 47 7;
#X connect 23 3 48 7;
#X connect 23 4 24 7;
#X connect 23 5 49 7;
#X connect 23 6 50 7;
#X connect 23 7 51 7;
#X connect 23 8 52 7;
#X connect 24 0 17 0;
#X connect 34 0 45 1;
#X connect 34 1 46 1;
#X connect 34 2 47 1;
#X connect 34 3 48 1;
#X connect 34 4 24 1;
#X connect 34 5 49 1;
#X connect 34 6 50 1;
#X connect 34 7 51 1;
#X connect 34 8 52 1;
#X connect 35 0 45 3;
#X connect 35 1 46 3;
#X connect 35 2 47 3;
#X connect 35 3 48 3;
#X connect 35 4 24 3;
#X connect 35 5 49 3;
#X connect 35 6 50 3;
#X connect 35 7 51 3;
#X connect 35 8 52 3;
#X connect 36 0 45 0;
#X connect 36 1 46 0;
#X connect 36 2 47 0;
#X connect 36 3 48 0;
#X connect 36 4 24 0;
#X connect 36 5 49 0;
#X connect 36 6 50 0;
#X connect 36 7 51 0;
#X connect 36 8 52 0;
#X connect 37 0 45 4;
#X connect 37 1 46 4;
#X connect 37 2 47 4;
#X connect 37 3 48 4;
#X connect 37 4 24 4;
#X connect 37 5 49 4;
#X connect 37 6 50 4;
#X connect 37 7 51 4;
#X connect 37 8 52 4;
#X connect 38 0 45 5;
#X connect 38 1 46 5;
#X connect 38 2 47 5;
#X connect 38 3 48 5;
#X connect 38 4 24 5;
#X connect 38 5 49 5;
#X connect 38 6 50 5;
#X connect 38 7 51 5;
#X connect 38 8 52 5;
#X connect 39 0 45 6;
#X connect 39 1 46 6;
#X connect 39 2 47 6;
#X connect 39 3 48 6;
#X connect 39 4 24 6;
#X connect 39 5 49 6;
#X connect 39 6 50 6;
#X connect 39 7 51 6;
#X connect 39 8 52 6;
#X connect 40 0 45 8;
#X connect 40 1 46 8;
#X connect 40 2 47 8;
#X connect 40 3 48 8;
#X connect 40 4 24 8;
#X connect 40 5 49 8;
#X connect 40 6 50 8;
#X connect 40 7 51 8;
#X connect 40 8 52 8;
#X connect 41 0 45 9;
#X connect 41 1 46 9;
#X connect 41 2 47 9;
#X connect 41 3 48 9;
#X connect 41 4 24 9;
#X connect 41 5 49 9;
#X connect 41 6 50 9;
#X connect 41 7 51 9;
#X connect 41 8 52 9;
#X connect 42 0 45 10;
#X connect 42 1 46 10;
#X connect 42 2 47 10;
#X connect 42 3 48 10;
#X connect 42 4 24 10;
#X connect 42 5 49 10;
#X connect 42 6 50 10;
#X connect 42 7 51 10;
#X connect 42 8 52 10;
#X connect 43 0 45 11;
#X connect 43 1 46 11;
#X connect 43 2 47 11;
#X connect 43 3 48 11;
#X connect 43 4 24 11;
#X connect 43 5 49 11;
#X connect 43 6 50 11;
#X connect 43 7 51 11;
#X connect 43 8 52 11;
#X connect 44 0 45 12;
#X connect 44 1 46 12;
#X connect 44 2 47 12;
#X connect 44 3 48 12;
#X connect 44 4 24 12;
#X connect 44 5 49 12;
#X connect 44 6 50 12;
#X connect 44 7 51 12;
#X connect 44 8 52 12;
#X connect 45 0 13 0;
#X connect 46 0 14 0;
#X connect 47 0 15 0;
#X connect 48 0 16 0;
#X connect 49 0 18 0;
#X connect 50 0 19 0;
#X connect 51 0 20 0;
#X connect 52 0 21 0;
