#N canvas 65 54 1301 714 10;
#X floatatom 178 159 5 0 0 0 - - -;
#X obj 178 188 / 10;
#X floatatom 178 216 5 0 0 0 - - -;
#X obj 163 248 pow;
#X floatatom 163 280 10 0 0 0 - - -;
#X msg 146 217 10;
#X obj 163 321 +;
#X obj 64 249 loadbang;
#X obj 720 536 log;
#X floatatom 720 607 5 0 0 0 - - -;
#X obj 720 569 * 4.34294;
#X obj 180 349 +;
#X obj 195 377 +;
#X obj 213 404 +;
#X obj 248 459 +;
#X obj 230 432 +;
#X obj 265 487 +;
#X obj 282 516 +;
#X obj 178 94 inlet;
#X obj 720 641 outlet;
#X obj 298 544 +;
#X obj 314 573 +;
#X obj 329 601 +;
#X obj 345 628 +;
#X obj 190 129 s bg;
#X obj 64 219 r bg;
#X floatatom 259 159 5 0 0 0 - - -;
#X obj 259 188 / 10;
#X floatatom 259 216 5 0 0 0 - - -;
#X obj 244 248 pow;
#X floatatom 244 280 10 0 0 0 - - -;
#X msg 227 217 10;
#X obj 259 94 inlet;
#X obj 271 129 s bg;
#X floatatom 342 159 5 0 0 0 - - -;
#X obj 342 188 / 10;
#X floatatom 342 216 5 0 0 0 - - -;
#X obj 327 248 pow;
#X floatatom 327 280 10 0 0 0 - - -;
#X msg 310 217 10;
#X obj 342 94 inlet;
#X obj 354 129 s bg;
#X floatatom 423 159 5 0 0 0 - - -;
#X obj 423 188 / 10;
#X floatatom 423 216 5 0 0 0 - - -;
#X obj 408 248 pow;
#X floatatom 408 280 10 0 0 0 - - -;
#X msg 391 217 10;
#X obj 423 94 inlet;
#X obj 435 129 s bg;
#X floatatom 505 159 5 0 0 0 - - -;
#X obj 505 188 / 10;
#X floatatom 505 216 5 0 0 0 - - -;
#X obj 490 248 pow;
#X floatatom 490 280 10 0 0 0 - - -;
#X msg 473 217 10;
#X obj 505 94 inlet;
#X obj 517 129 s bg;
#X floatatom 586 159 5 0 0 0 - - -;
#X obj 586 188 / 10;
#X floatatom 586 216 5 0 0 0 - - -;
#X obj 571 248 pow;
#X floatatom 571 280 10 0 0 0 - - -;
#X msg 554 217 10;
#X obj 586 94 inlet;
#X obj 598 129 s bg;
#X floatatom 669 159 5 0 0 0 - - -;
#X obj 669 188 / 10;
#X floatatom 669 216 5 0 0 0 - - -;
#X obj 654 248 pow;
#X floatatom 654 280 10 0 0 0 - - -;
#X msg 637 217 10;
#X obj 669 94 inlet;
#X obj 681 129 s bg;
#X floatatom 750 159 5 0 0 0 - - -;
#X obj 750 188 / 10;
#X floatatom 750 216 5 0 0 0 - - -;
#X obj 735 248 pow;
#X floatatom 735 280 10 0 0 0 - - -;
#X msg 718 217 10;
#X obj 750 94 inlet;
#X obj 762 129 s bg;
#X floatatom 831 160 5 0 0 0 - - -;
#X obj 831 189 / 10;
#X floatatom 831 217 5 0 0 0 - - -;
#X obj 816 249 pow;
#X floatatom 816 281 10 0 0 0 - - -;
#X msg 799 218 10;
#X obj 831 95 inlet;
#X obj 843 130 s bg;
#X floatatom 913 160 5 0 0 0 - - -;
#X obj 913 189 / 10;
#X floatatom 913 217 5 0 0 0 - - -;
#X obj 898 249 pow;
#X floatatom 898 281 10 0 0 0 - - -;
#X msg 881 218 10;
#X obj 913 95 inlet;
#X obj 925 130 s bg;
#X floatatom 994 160 5 0 0 0 - - -;
#X obj 994 189 / 10;
#X floatatom 994 217 5 0 0 0 - - -;
#X obj 979 249 pow;
#X floatatom 979 281 10 0 0 0 - - -;
#X msg 962 218 10;
#X obj 994 95 inlet;
#X obj 1006 130 s bg;
#X floatatom 1077 160 5 0 0 0 - - -;
#X obj 1077 189 / 10;
#X floatatom 1077 217 5 0 0 0 - - -;
#X obj 1062 249 pow;
#X floatatom 1062 281 10 0 0 0 - - -;
#X msg 1045 218 10;
#X obj 1077 95 inlet;
#X obj 1089 130 s bg;
#X floatatom 1158 160 5 0 0 0 - - -;
#X obj 1158 189 / 10;
#X floatatom 1158 217 5 0 0 0 - - -;
#X obj 1143 249 pow;
#X floatatom 1143 281 10 0 0 0 - - -;
#X msg 1126 218 10;
#X obj 1158 95 inlet;
#X obj 1170 130 s bg;
#X text 13 8 For each register (they are 13 in total) we sum the correspondents
harmonics. The sum is energetic \, so we have to compute \, for each
input intensity I \, the correspondent linear quantity 10^(I/10).;
#X text 835 529 We sum all the linear intensities and then we compute
10*Log(sum). As there is no base 10 log \, we multiply the result by
log(e) and then by 10;
#X text 969 670 Author: Nicola Simoni (nicola.simoni.89@gmail.com)
;
#X text 962 654 Project: Pipe Organ Emulation with Pure Data;
#X connect 0 0 1 0;
#X connect 1 0 2 0;
#X connect 2 0 3 1;
#X connect 3 0 4 0;
#X connect 4 0 6 0;
#X connect 5 0 3 0;
#X connect 6 0 11 0;
#X connect 7 0 6 0;
#X connect 8 0 10 0;
#X connect 9 0 19 0;
#X connect 10 0 9 0;
#X connect 11 0 12 0;
#X connect 12 0 13 0;
#X connect 13 0 15 0;
#X connect 14 0 16 0;
#X connect 15 0 14 0;
#X connect 16 0 17 0;
#X connect 17 0 20 0;
#X connect 18 0 0 0;
#X connect 18 0 5 0;
#X connect 18 0 24 0;
#X connect 20 0 21 0;
#X connect 21 0 22 0;
#X connect 22 0 23 0;
#X connect 23 0 8 0;
#X connect 25 0 7 0;
#X connect 26 0 27 0;
#X connect 27 0 28 0;
#X connect 28 0 29 1;
#X connect 29 0 30 0;
#X connect 30 0 6 1;
#X connect 31 0 29 0;
#X connect 32 0 26 0;
#X connect 32 0 31 0;
#X connect 32 0 33 0;
#X connect 34 0 35 0;
#X connect 35 0 36 0;
#X connect 36 0 37 1;
#X connect 37 0 38 0;
#X connect 38 0 11 1;
#X connect 39 0 37 0;
#X connect 40 0 34 0;
#X connect 40 0 39 0;
#X connect 40 0 41 0;
#X connect 42 0 43 0;
#X connect 43 0 44 0;
#X connect 44 0 45 1;
#X connect 45 0 46 0;
#X connect 46 0 12 1;
#X connect 47 0 45 0;
#X connect 48 0 42 0;
#X connect 48 0 47 0;
#X connect 48 0 49 0;
#X connect 50 0 51 0;
#X connect 51 0 52 0;
#X connect 52 0 53 1;
#X connect 53 0 54 0;
#X connect 54 0 13 1;
#X connect 55 0 53 0;
#X connect 56 0 50 0;
#X connect 56 0 55 0;
#X connect 56 0 57 0;
#X connect 58 0 59 0;
#X connect 59 0 60 0;
#X connect 60 0 61 1;
#X connect 61 0 62 0;
#X connect 62 0 15 1;
#X connect 63 0 61 0;
#X connect 64 0 58 0;
#X connect 64 0 63 0;
#X connect 64 0 65 0;
#X connect 66 0 67 0;
#X connect 67 0 68 0;
#X connect 68 0 69 1;
#X connect 69 0 70 0;
#X connect 70 0 14 1;
#X connect 71 0 69 0;
#X connect 72 0 66 0;
#X connect 72 0 71 0;
#X connect 72 0 73 0;
#X connect 74 0 75 0;
#X connect 75 0 76 0;
#X connect 76 0 77 1;
#X connect 77 0 78 0;
#X connect 78 0 16 1;
#X connect 79 0 77 0;
#X connect 80 0 74 0;
#X connect 80 0 79 0;
#X connect 80 0 81 0;
#X connect 82 0 83 0;
#X connect 83 0 84 0;
#X connect 84 0 85 1;
#X connect 85 0 86 0;
#X connect 86 0 17 1;
#X connect 87 0 85 0;
#X connect 88 0 82 0;
#X connect 88 0 87 0;
#X connect 88 0 89 0;
#X connect 90 0 91 0;
#X connect 91 0 92 0;
#X connect 92 0 93 1;
#X connect 93 0 94 0;
#X connect 94 0 20 1;
#X connect 95 0 93 0;
#X connect 96 0 90 0;
#X connect 96 0 95 0;
#X connect 96 0 97 0;
#X connect 98 0 99 0;
#X connect 99 0 100 0;
#X connect 100 0 101 1;
#X connect 101 0 102 0;
#X connect 102 0 21 1;
#X connect 103 0 101 0;
#X connect 104 0 98 0;
#X connect 104 0 103 0;
#X connect 104 0 105 0;
#X connect 106 0 107 0;
#X connect 107 0 108 0;
#X connect 108 0 109 1;
#X connect 109 0 110 0;
#X connect 110 0 22 1;
#X connect 111 0 109 0;
#X connect 112 0 106 0;
#X connect 112 0 111 0;
#X connect 112 0 113 0;
#X connect 114 0 115 0;
#X connect 115 0 116 0;
#X connect 116 0 117 1;
#X connect 117 0 118 0;
#X connect 118 0 23 1;
#X connect 119 0 117 0;
#X connect 120 0 114 0;
#X connect 120 0 119 0;
#X connect 120 0 121 0;
