#N canvas 241 157 803 518 10;
#X obj 230 323 inlet~;
#X obj 111 139 hsl 128 15 0 127 0 1 s_lfo r_lfo LFO_frequency -2 -8
0 10 -262144 -1 -1 0 1;
#X obj 322 260 osc~;
#X obj 321 299 *~ 0.5;
#X obj 269 457 outlet~;
#X obj 320 340 +~ 1;
#X obj 285 376 *~;
#X obj 270 416 +~;
#X obj 456 87 ctlin 1 1;
#X obj 322 184 * 5;
#X obj 322 223 / 127;
#X text 98 35 Tremolo is obtained by multiplying the signal with a
proper waveform.;
#X obj 456 119 s r_lfo;
#X obj 322 150 r s_lfo;
#X text 455 149 We read the value from the midi controller.;
#X text 475 467 Project: Pipe Organ Emulation with Pure Data;
#X text 481 484 Author: Nicola Simoni (nicola.simoni.89@gmail.com)
;
#X connect 0 0 6 0;
#X connect 0 0 7 0;
#X connect 2 0 3 0;
#X connect 3 0 5 0;
#X connect 5 0 6 1;
#X connect 6 0 7 1;
#X connect 7 0 4 0;
#X connect 8 0 12 0;
#X connect 9 0 10 0;
#X connect 10 0 2 0;
#X connect 13 0 9 0;
#X coords 0 -1 1 1 150 60 1 100 100;
